# xmcd
# 
# Track frame offsets:
#     300
#     14687
#     27094
#     41923
#     57227
#     69525
#     83774
#     98178
#     113476
#     130742
#     144830
#     160423
#     181054
#     198524
#     217358
# 
# Disc length: 3056
# 
# Revision: 0
# Processed by: cddbd v1.5.2PL0 Copyright (c) Steve Scherf et al.
# Submitted via: fre:ac v1.0.31
# 
DISCID=d40bec0f
DTITLE=The Adobe Brothers - The Adobe Brothers
DYEAR=0
DGENRE=
TTITLE0=Rockingham Cindy
TTITLE1=My Dog
TTITLE2=Born to Ride
TTITLE3=Pointless/Peter, Eat Your Heart Out
TTITLE4=Long Gone like a Turkey through the Corn
TTITLE5=My Dixie Darling
TTITLE6=Baltimore Fire
TTITLE7=Puff Adder Step Dance/Waiting for Nancy
TTITLE8=Big Boy
TTITLE9=The Bravest Cowboy
TTITLE10=Frankie and Johnnie
TTITLE11=Rags: Napolean/Blue Devil
TTITLE12=Lewis Collins
TTITLE13=Blue Ridge Mountain Double-Wide
TTITLE14=Far from Home/Newlywed Reel
EXTD=
EXTT0=
EXTT1=
EXTT2=
EXTT3=
EXTT4=
EXTT5=
EXTT6=
EXTT7=
EXTT8=
EXTT9=
EXTT10=
EXTT11=
EXTT12=
EXTT13=
EXTT14=
PLAYORDER=
